<?xml version="1.0" encoding="UTF-8" standalone="no"?>
<svg width="131px" height="122px" viewBox="0 0 131 122" version="1.1" xmlns="http://www.w3.org/2000/svg" xmlns:xlink="http://www.w3.org/1999/xlink" xmlns:sketch="http://www.bohemiancoding.com/sketch/ns">
    <!-- Generator: Sketch 3.0.4 (8054) - http://www.bohemiancoding.com/sketch -->
    <title>Slice 1</title>
    <desc>Created with Sketch.</desc>
    <defs></defs>
    <g id="Page-1" stroke="none" stroke-width="1" fill="none" fill-rule="evenodd" sketch:type="MSPage">
        <path d="M22.1282701,35.2244705 L40.8970009,52.1239115 L33.116304,60.181059 C31.969167,61.3689541 32.0078149,63.2672863 33.1912553,64.4101214 L46.4376272,77.2019941 C47.6261587,78.3497456 49.5294848,78.3069586 50.6667292,77.1293076 L51.7586131,75.9986286 L51.7586131,75.9986286 L92.221865,113.731221 L92.4686644,113.466561 L92.4686644,113.466561 C92.6721086,113.628936 92.8817735,113.785842 93.0976209,113.93698 C99.2297123,118.230716 108.029592,116.243331 112.752702,109.498031 C117.475812,102.75273 116.333608,93.8038225 110.201516,89.5100859 C109.954726,89.3372813 109.703614,89.1746504 109.448621,89.0220938 L72.4762945,54.5448415 L74.7596595,52.1803478 C75.9067965,50.9924527 75.8681486,49.0941206 74.6847082,47.9512854 L61.4383363,35.1594128 C60.2498048,34.0116613 58.3464787,34.0544482 57.2092343,35.2320993 L50.3184338,42.3677321 L50.3184338,42.3677321 L31.3193881,25.2609146 C34.332482,20.7130906 30.1959002,18.9212614 30.1959002,18.9212614 C30.1959002,18.9212614 24.8350199,15.1792346 18.1564219,10.1194901 C11.477824,5.05974562 9.69152569,6.9353919 9.69152569,6.9353919 L5.18242968,10.8911921 C5.18242968,10.8911921 3.25476043,12.5663004 3.14992801,13.5683228 C3.03348623,14.6813111 4.51860709,17.2362242 4.51860709,17.2362242 C4.51860709,17.2362242 10.5055853,28.310745 15.052406,34.481713 C17.4701992,37.763154 19.674275,37.3017347 22.1282701,35.2244705 Z" id="Rectangle-75" stroke="#2FB7C5" fill="#2BA8B5" sketch:type="MSShapeGroup"></path>
        <path d="M39.6446762,50.9009715 L22.234158,35.2244705 L22.234158,35.2244705 C19.780163,37.3017347 17.5760871,37.763154 15.1582939,34.481713 C10.6114732,28.310745 4.624495,17.2362242 4.624495,17.2362242 C4.624495,17.2362242 3.13937414,14.6813111 3.25581592,13.5683228 C3.36064834,12.5663004 5.28831759,10.8911921 5.28831759,10.8911921 L9.7974136,6.9353919 C9.7974136,6.9353919 11.5837119,5.05974562 18.2623098,10.1194901 C24.9409078,15.1792346 30.3017881,18.9212614 30.3017881,18.9212614 C30.3017881,18.9212614 34.4383699,20.7130906 31.4252761,25.2609146 L49.0661092,41.1447921 L39.6446762,50.9009715 Z" id="Rectangle-76" fill="#2BA8B5" sketch:type="MSShapeGroup"></path>
        <path d="M124.886309,22.705087 C129.208255,32.191685 128.343578,42.6378941 121.782323,49.1991485 C115.757191,55.2242804 106.456049,56.4457403 97.6302936,53.2584107 L38.7620934,114.218217 L38.3921232,113.86094 C33.4915246,117.181507 26.075799,116.047056 20.9204685,110.891725 C15.9147794,105.886036 14.6999329,98.7492703 17.6733494,93.8530532 L17.6733494,93.8530532 L17.3115737,93.5036905 L77.0002535,31.6942532 C74.4236271,23.2971452 75.8209414,14.651363 81.5277396,8.94456484 C88.0591696,2.41313486 98.440316,1.52661166 107.892377,5.78196344 C105.114922,6.8711714 102.479033,8.75971669 100.361255,11.3749555 C94.7080184,18.3561211 94.8874898,27.8719287 100.762115,32.6291068 C106.636741,37.3862848 115.98192,35.5833867 121.635156,28.6022211 C123.120923,26.7674517 124.203808,24.7576075 124.886309,22.705087 L124.886309,22.705087 Z M32.5274723,103.621185 C35.5218328,103.621185 37.9492416,101.193776 37.9492416,98.1994159 C37.9492416,95.2050553 35.5218328,92.7776465 32.5274723,92.7776465 C29.5331117,92.7776465 27.1057029,95.2050553 27.1057029,98.1994159 C27.1057029,101.193776 29.5331117,103.621185 32.5274723,103.621185 Z" id="Rectangle-74" fill="#2FB7C5" sketch:type="MSShapeGroup"></path>
        <rect id="Rectangle-84" fill="#2FB7C5" sketch:type="MSShapeGroup" x="78.879082" y="37.9594247" width="5.05301214" height="73.268676"></rect>
        <rect id="Rectangle-84" fill="#2FB7C5" sketch:type="MSShapeGroup" x="70.0363107" y="46.8021959" width="5.05301214" height="73.268676"></rect>
        <path d="M20.6979243,111.474904 C20.771253,111.55088 20.8454349,111.626393 20.9204685,111.701426 C26.075799,116.856757 33.4915246,117.991208 38.3921232,114.670642 L38.7620934,115.027918 L97.6302936,54.0681119 C106.456049,57.2554415 115.757191,56.0339816 121.782323,50.0088497 C128.343578,43.4475953 129.208255,33.0013862 124.886309,23.5147882 L124.886309,23.5147882 C124.203808,25.5673087 123.120923,27.5771529 121.635156,29.4119223 C115.98192,36.3930879 106.636741,38.195986 100.762115,33.438808 C99.8626127,32.7104051 99.0966312,31.8704376 98.4646646,30.9450866 L36.400209,95.2147117 C37.3584319,96.1925914 37.9492416,97.5318587 37.9492416,99.0091171 C37.9492416,102.003478 35.5218328,104.430886 32.5274723,104.430886 C31.1182778,104.430886 29.8346515,103.893265 28.8705124,103.011941 L20.6979243,111.474904 Z" id="Rectangle-74" fill="#2BA8B5" sketch:type="MSShapeGroup"></path>
    </g>
</svg>