<?xml version="1.0" encoding="UTF-8" standalone="no"?>
<svg width="97px" height="138px" viewBox="0 0 97 138" version="1.1" xmlns="http://www.w3.org/2000/svg" xmlns:xlink="http://www.w3.org/1999/xlink" xmlns:sketch="http://www.bohemiancoding.com/sketch/ns">
    <!-- Generator: Sketch 3.0.4 (8054) - http://www.bohemiancoding.com/sketch -->
    <title>Slice 4</title>
    <desc>Created with Sketch.</desc>
    <defs></defs>
    <g id="Page-1" stroke="none" stroke-width="1" fill="none" fill-rule="evenodd" sketch:type="MSPage">
        <g id="Group" sketch:type="MSLayerGroup" transform="translate(3.723581, -0.394208)">
            <path d="M27.2069558,18.8202767 C29.9245456,13.9330997 33.4538248,9.81125409 35.7405793,7.96829085 C40.5143232,4.12098902 43.0744102,-2.13960726 51.968766,8.72805812 C60.8631218,19.5957235 65.3555898,30.6700798 65.3555898,30.6700798 L22.1964317,30.8938761 C22.1964317,30.8938761 24.2514058,24.1353894 27.2069558,18.8202767 Z M21.3470421,33.3208907 L65.9419785,33.3811161 C65.9419785,33.3811161 68.2358864,55.9571681 63.5400098,73.2511389 C58.8441332,90.5451097 58.0678436,93.0846163 58.0678436,93.0846163 L29.3649932,93.3008102 C29.3649932,93.3008102 22.675554,70.5734225 20.5731363,59.1004735 C18.4707185,47.6275245 21.3470421,33.3208907 21.3470421,33.3208907 Z M43.6814576,58.5082566 C48.8490713,58.5082566 53.0382499,54.4374059 53.0382499,49.4157572 C53.0382499,44.3941085 48.8490713,40.3232579 43.6814576,40.3232579 C38.5138439,40.3232579 34.3246652,44.3941085 34.3246652,49.4157572 C34.3246652,54.4374059 38.5138439,58.5082566 43.6814576,58.5082566 Z M66.5965536,74.8377494 C65.6905338,78.4561996 63.0648602,85.6931 63.0648602,85.6931 C63.0648602,85.6931 68.7777794,93.5586987 68.7777794,98.5033629 C68.7777794,103.448027 76.0925408,85.5772818 76.0925408,78.3679861 C76.0925408,76.3091536 75.883715,72.306026 75.1231721,69.9232965 C73.2205656,63.962559 68.7523534,59.7289802 68.7523534,59.7289802 C68.7523534,59.7289802 67.8575762,69.801493 66.5965536,74.8377494 Z M20.7703956,74.8538604 L24.2980549,85.6931 C24.2980549,85.6931 18.5851357,93.5586987 18.5851357,98.5033629 C18.5851357,103.448027 11.2703743,85.5772818 11.2703743,78.3679861 C11.2703743,76.3091536 11.4792002,72.306026 12.2397431,69.9232965 C14.1423495,63.962559 17.7969277,59.7289802 17.7969277,59.7289802 L20.7703956,74.8538604 Z M43.8734075,131.176875 C43.8734075,131.176875 53.4484747,121.979603 53.1903479,114.070179 C52.9322211,106.160755 51.9241183,103.883641 54.6850721,99.0151829 C56.4408455,95.9191841 51.6246555,101.808145 48.9679071,106.530893 C47.4469185,109.234666 48.2650382,111.52847 47.2965232,111.605531 C44.6362791,111.817197 37.9582964,101.469972 37.6805928,97.294743 C37.4028891,93.119514 35.3835921,104.907618 40.8101342,112.108882 C46.2366763,119.310147 43.8734075,131.176875 43.8734075,131.176875 Z" id="Path-23" fill="#2FB7C5" sketch:type="MSShapeGroup"></path>
            <path d="M44.2403069,2.70584049 C46.2344223,3.01726235 48.6644829,4.69068385 51.968766,8.72805812 C60.8631218,19.5957235 65.3555898,30.6700798 65.3555898,30.6700798 L44.2403069,30.7795704 L44.2403069,2.70584049 Z M44.2403069,33.351808 L65.9419785,33.3811161 C65.9419785,33.3811161 68.2358864,55.9571681 63.5400098,73.2511389 C58.8441332,90.5451097 58.0678436,93.0846163 58.0678436,93.0846163 L44.2403069,93.1887673 L44.2403069,58.4923067 C49.1477478,58.2113967 53.0382499,54.2550814 53.0382499,49.4157572 C53.0382499,44.576433 49.1477478,40.6201177 44.2403069,40.3392077 L44.2403069,33.351808 Z M44.2403069,130.811117 C45.9928705,129.027836 53.4180669,121.047859 53.1903479,114.070179 C52.9322211,106.160755 51.9241183,103.883641 54.6850721,99.0151829 C56.4408455,95.9191841 51.6246555,101.808145 48.9679071,106.530893 C47.4469185,109.234666 48.2650382,111.52847 47.2965232,111.605531 C46.5288873,111.666609 45.4267106,110.848491 44.2403076,109.553171 L44.2403069,122.010068 C44.4749784,124.450615 44.3881884,126.717281 44.2403069,128.386106 L44.2403069,130.811117 Z M66.5965536,74.8377494 C65.6905338,78.4561996 63.0648602,85.6931 63.0648602,85.6931 C63.0648602,85.6931 68.7777794,93.5586987 68.7777794,98.5033629 C68.7777794,103.448027 76.0925408,85.5772818 76.0925408,78.3679861 C76.0925408,76.3091536 75.883715,72.306026 75.1231721,69.9232965 C73.2205656,63.962559 68.7523534,59.7289802 68.7523534,59.7289802 C68.7523534,59.7289802 67.8575762,69.801493 66.5965536,74.8377494 Z" id="Path-23" fill="#2CA8B5" sketch:type="MSShapeGroup"></path>
            <ellipse id="Oval-27" stroke="#FFFFFF" sketch:type="MSShapeGroup" cx="43.7037652" cy="49.4673341" rx="12.4097111" ry="11.9763019"></ellipse>
            <path d="M42.311429,104.517021 C41.3686946,102.147378 41.3098835,99.9299043 41.3098835,99.9299043 C41.3098835,99.9299043 42.9795716,102.012739 44.3539683,102.012739 C45.0879183,102.012739 46.5068915,100.394579 47.6867153,99.8480752 C48.7489835,99.3560242 49.6173849,99.9299043 49.6173849,99.9299043 C49.6173849,99.9299043 48.6130159,101.813098 47.6109966,103.810382 C46.9742885,105.079507 46.4536443,106.351693 46.4536443,107.118404 C46.4536443,109.091725 46.4536443,110.480914 44.5962496,108.171424 C43.7785168,107.154653 42.8217548,105.799769 42.311429,104.517021 Z" id="Path-38" fill="#2FB7C5" sketch:type="MSShapeGroup"></path>
        </g>
        <path d="M-118.364883,50.8071326 L-138.231373,32.9192649 L-138.231373,32.9192649 C-141.031535,35.2895532 -143.546523,35.8160615 -146.305376,32.0717321 C-151.493583,25.0302718 -158.325099,12.3935512 -158.325099,12.3935512 C-158.325099,12.3935512 -160.019715,9.47823561 -159.886848,8.20824636 C-159.767227,7.06487618 -157.567636,5.15347289 -157.567636,5.15347289 L-152.422476,0.639657521 C-152.422476,0.639657521 -150.384198,-1.50057215 -142.7635,4.27291263 C-135.142802,10.0463974 -129.025702,14.316284 -129.025702,14.316284 C-129.025702,14.316284 -124.305604,16.3608731 -127.743732,21.5502247 L-107.614439,39.674722 L-118.364883,50.8071326 Z" id="Rectangle-76" fill="#2BA8B5" sketch:type="MSShapeGroup"></path>
        <path d="M-140.040027,118.767206 C-139.956355,118.8539 -139.871709,118.940064 -139.786091,119.025682 C-133.903536,124.908237 -125.44173,126.202717 -119.84984,122.413743 L-119.427681,122.821417 L-52.2553841,53.2624674 C-42.1846454,56.8994098 -31.5714603,55.5056476 -24.6964082,48.6305954 C-17.2096066,41.1437939 -16.2229558,29.2240162 -21.1545659,18.3992148 L-21.1545659,18.3992148 C-21.9333422,20.741269 -23.1689823,23.0346269 -24.8643352,25.1282135 C-31.3150314,33.0941599 -41.9784645,35.1513794 -48.6817796,29.7231418 C-49.7081684,28.8919886 -50.5822012,27.9335331 -51.3033146,26.8776499 L-122.122739,100.21331 C-121.029347,101.329132 -120.355196,102.85732 -120.355196,104.542964 C-120.355196,107.959717 -123.125021,110.729542 -126.541774,110.729542 C-128.149753,110.729542 -129.61445,110.116082 -130.714593,109.110436 L-140.040027,118.767206 Z M666.943386,86.195371 C667.001433,86.2555146 667.060156,86.3152908 667.119553,86.3746879 C671.200549,90.4556839 677.07089,91.3537235 680.950238,88.7251397 L681.243109,89.007962 L727.843591,40.7517503 C734.830121,43.2748629 742.192971,42.3079466 746.962508,37.5384097 C752.156443,32.3444745 752.840928,24.0751818 749.419645,16.565524 L749.419645,16.565524 C748.879373,18.1903137 748.022153,19.7813205 746.846009,21.2337369 C742.370868,26.7600767 734.973158,28.1872636 730.322763,24.421448 C729.610711,23.8448391 729.004354,23.1799149 728.504085,22.4474006 L679.373425,73.3236885 C680.131961,74.0977849 680.59965,75.1579584 680.59965,76.3273665 C680.59965,78.6977234 678.678096,80.6192773 676.307739,80.6192773 C675.192211,80.6192773 674.176083,80.1936924 673.412864,79.4960301 L666.943386,86.195371 L666.943386,86.195371 Z" id="Rectangle-74" fill="#2BA8B5" sketch:type="MSShapeGroup"></path>
    </g>
</svg>