<?xml version="1.0" encoding="UTF-8" standalone="no"?>
<svg width="42px" height="40px" viewBox="0 0 42 40" version="1.1" xmlns="http://www.w3.org/2000/svg" xmlns:xlink="http://www.w3.org/1999/xlink" xmlns:sketch="http://www.bohemiancoding.com/sketch/ns">
    <!-- Generator: Sketch 3.0.4 (8054) - http://www.bohemiancoding.com/sketch -->
    <title>Slice 4</title>
    <desc>Created with Sketch.</desc>
    <defs></defs>
    <g id="Page-1" stroke="none" stroke-width="1" fill="none" fill-rule="evenodd" sketch:type="MSPage">
        <path d="M4.00098853,13.3468682 L4.00098853,37.471868 L11.448395,37.471868 L11.448395,13.3087804 L4.00098853,13.3468682 Z M15.6419563,13.356354 L15.6419563,37.4881259 L23.3191869,37.4881259 L23.3191869,22.5474826 C23.3191869,22.5474826 24.2994044,19.6359506 26.5864296,19.2614988 C28.8734548,18.8870471 31.0385876,19.1299286 31.0385876,22.2760843 C31.0385876,25.42224 31.0385876,37.4654095 31.0385876,37.4654095 L38.7288163,37.4654095 L38.6395552,21.4766689 C38.6395552,21.4766689 38.9879211,16.0545884 34.3711846,13.8977557 C32.9141317,13.2170543 30.1700896,13.1407606 29.2215106,13.2063643 C26.5316123,13.3923975 25.6269984,13.8392256 24.8491062,14.529984 C23.7968944,15.4643348 22.5051663,16.8058634 22.5051663,16.8058634 L22.5682468,13.3217308 L15.6419563,13.356354 Z M6.88538169,10.7707634 C9.03121875,10.7707634 10.7707634,9.03121875 10.7707634,6.88538169 C10.7707634,6.0420814 10.5021012,5.26153053 10.0456991,4.6246515 C9.34075404,3.64094693 8.18791845,3 6.88538169,3 C4.73954464,3 3,4.73954464 3,6.88538169 C3,9.03121875 4.73954464,10.7707634 6.88538169,10.7707634 Z" id="Path-5" fill="#5B4954" sketch:type="MSShapeGroup"></path>
    </g>
</svg>