<?xml version="1.0" encoding="UTF-8" standalone="no"?>
<svg width="122px" height="157px" viewBox="0 0 122 157" version="1.1" xmlns="http://www.w3.org/2000/svg" xmlns:xlink="http://www.w3.org/1999/xlink" xmlns:sketch="http://www.bohemiancoding.com/sketch/ns">
    <!-- Generator: Sketch 3.0.4 (8054) - http://www.bohemiancoding.com/sketch -->
    <title>Slice 3</title>
    <desc>Created with Sketch.</desc>
    <defs></defs>
    <g id="Page-1" stroke="none" stroke-width="1" fill="none" fill-rule="evenodd" sketch:type="MSPage">
        <g id="Oval-1" sketch:type="MSLayerGroup" transform="translate(108.000000, 107.000000)"></g>
        <path d="M52.6520227,11.668125 L16.0384119,11.668125 C11.6154881,11.668125 8.03,15.2425905 8.03,19.6688531 L8.03,145.402272 C8.03,149.820952 11.6165331,153.403 16.0384119,153.403 L105.991588,153.403 C110.414512,153.403 114,149.828534 114,145.402272 L114,19.6688531 C114,15.250173 110.413467,11.668125 105.991588,11.668125 L71.4207791,11.668125 L71.4207791,11.668125 L71.612,11.668125 L71.612,14.0336728 C71.6818362,14.310211 71.7608072,14.5829352 71.8493821,14.84949 L101.875067,14.8494893 C106.292351,14.8494893 109.871299,18.4305101 109.871299,22.847923 L109.871299,140.106066 C109.871299,144.52303 106.291264,148.1045 101.875067,148.1045 L20.1549332,148.1045 C15.7376486,148.1045 12.1587013,144.523479 12.1587013,140.106066 L12.1587013,22.847923 C12.1587013,18.4309589 15.7387363,14.8494893 20.1549332,14.8494893 L53.0251284,14.8494893 L53.0251284,14.8494893 C53.0255037,14.8487346 53.025879,14.8479799 53.0262541,14.847225 L53.9945037,14.847225 L53.9945037,11.668125 L52.6520227,11.668125 Z M89.04297,24.9288435 C88.6855473,24.5842876 88.2572411,24.2444174 87.7483379,23.9127308 C81.461444,19.8151379 83.2347751,18.3593957 76.6990164,18.8511628 C74.5098005,19.0158849 73.087611,17.681783 72.236163,15.8344669 L72.236163,15.8344669 L99.3709315,15.8344669 C103.798809,15.8344669 107.376875,19.41545 107.376875,23.8328167 L107.376875,137.4569 C107.376875,141.870173 103.792492,145.45525 99.3709315,145.45525 L22.6590685,145.45525 C18.2311906,145.45525 14.653125,141.874267 14.653125,137.4569 L14.653125,23.8328167 C14.653125,19.4195437 18.237508,15.8344669 22.6590685,15.8344669 L53.6697351,15.8344669 C52.8413417,17.8263212 51.3673093,19.3429298 48.7989697,19.3429298 C41.318069,19.3429298 41.8878741,19.7452847 39.4998607,23.2575071 C38.782314,24.3128546 38.1327891,24.7339835 37.5751934,24.9677913 L37.5751934,24.9677913 C37.4436463,24.9326173 37.3089155,24.914375 37.17175,24.914375 C35.7086096,24.914375 34.5225,26.9900668 34.5225,29.5505625 C34.5225,32.1110582 35.7086096,34.18675 37.17175,34.18675 C37.3082592,34.18675 37.4423569,34.1686818 37.5733048,34.1338375 C37.6514823,34.1678981 37.7367297,34.18675 37.824928,34.18675 L88.178947,34.18675 C88.2694259,34.18675 88.355608,34.1682565 88.4339569,34.1347347 C88.5638299,34.1689919 88.6967924,34.18675 88.832125,34.18675 C90.2952654,34.18675 91.481375,32.1110582 91.481375,29.5505625 C91.481375,27.1142609 90.4075368,25.1168738 89.04297,24.9288435 L89.04297,24.9288435 Z M32.2510543,46.9983574 C29.116118,46.9983574 26.57475,49.5475673 26.57475,52.6779212 C26.57475,55.8146576 29.1227301,58.3574849 32.2510543,58.3574849 L71.2341957,58.3574849 C74.369132,58.3574849 76.9105,55.808275 76.9105,52.6779212 C76.9105,49.5411847 74.3625199,46.9983574 71.2341957,46.9983574 L32.2510543,46.9983574 Z M29.1776574,71.8783003 C27.7401113,71.8783003 26.57475,73.0445627 26.57475,74.4766981 C26.57475,75.9117536 27.7347171,77.0750959 29.1776574,77.0750959 L94.1769676,77.0750959 C95.6145137,77.0750959 96.779875,75.9088335 96.779875,74.4766981 C96.779875,73.0416426 95.6199079,71.8783003 94.1769676,71.8783003 L29.1776574,71.8783003 Z M29.1776574,79.1538142 C27.7401113,79.1538142 26.57475,80.3200765 26.57475,81.752212 C26.57475,83.1872675 27.7347171,84.3506098 29.1776574,84.3506098 L94.1769676,84.3506098 C95.6145137,84.3506098 96.779875,83.1843474 96.779875,81.752212 C96.779875,80.3171565 95.6199079,79.1538142 94.1769676,79.1538142 L29.1776574,79.1538142 Z M29.1776574,64.6027864 C27.7401113,64.6027864 26.57475,65.7690488 26.57475,67.2011842 C26.57475,68.6362397 27.7347171,69.799582 29.1776574,69.799582 L94.1769676,69.799582 C95.6145137,69.799582 96.779875,68.6333197 96.779875,67.2011842 C96.779875,65.7661287 95.6199079,64.6027864 94.1769676,64.6027864 L29.1776574,64.6027864 Z M29.3160911,100.112291 C27.8020902,100.112291 26.57475,101.34298 26.57475,102.854228 C26.57475,104.368558 27.7932914,105.596165 29.3160911,105.596165 L94.0385339,105.596165 C95.5525348,105.596165 96.779875,104.365477 96.779875,102.854228 C96.779875,101.339898 95.5613336,100.112291 94.0385339,100.112291 L29.3160911,100.112291 Z M29.3160911,107.789715 C27.8020902,107.789715 26.57475,109.020403 26.57475,110.531652 C26.57475,112.045982 27.7932914,113.273589 29.3160911,113.273589 L94.0385339,113.273589 C95.5525348,113.273589 96.779875,112.042901 96.779875,110.531652 C96.779875,109.017322 95.5613336,107.789715 94.0385339,107.789715 L29.3160911,107.789715 Z M29.3160911,115.807318 C27.8020902,115.807318 26.57475,117.038007 26.57475,118.549255 C26.57475,120.063585 27.7932914,121.291192 29.3160911,121.291192 L94.0385339,121.291192 C95.5525348,121.291192 96.779875,120.060504 96.779875,118.549255 C96.779875,117.034925 95.5613336,115.807318 94.0385339,115.807318 L29.3160911,115.807318 Z M29.3160911,92.4348673 C27.8020902,92.4348673 26.57475,93.6655557 26.57475,95.1768044 C26.57475,96.6911344 27.7932914,97.9187414 29.3160911,97.9187414 L94.0385339,97.9187414 C95.5525348,97.9187414 96.779875,96.688053 96.779875,95.1768044 C96.779875,93.6624743 95.5613336,92.4348673 94.0385339,92.4348673 L29.3160911,92.4348673 Z" id="Rectangle-1" fill="#2FB7C5" sketch:type="MSShapeGroup"></path>
        <path d="M62.339625,153.403 L104.666963,153.403 C109.089887,153.403 112.675375,149.828534 112.675375,145.402272 L112.675375,19.6688531 C112.675375,15.250173 109.088842,11.668125 104.666963,11.668125 L70.0961541,11.668125 L70.0961541,11.668125 L70.287375,11.668125 L70.287375,14.0336728 C70.3572112,14.310211 70.4361822,14.5829352 70.5247571,14.84949 L100.550442,14.8494893 C104.967726,14.8494893 108.546674,18.4305101 108.546674,22.847923 L108.546674,140.106066 C108.546674,144.52303 104.966639,148.1045 100.550442,148.1045 L62.339625,148.1045 L62.339625,153.403 Z M62.339625,145.45525 L98.0463065,145.45525 C102.467867,145.45525 106.05225,141.870173 106.05225,137.4569 L106.05225,23.8328167 C106.05225,19.41545 102.474184,15.8344669 98.0463065,15.8344669 L70.911538,15.8344669 L70.911538,15.8344669 C71.762986,17.681783 73.1851755,19.0158849 75.3743914,18.8511628 C81.9101501,18.3593957 80.136819,19.8151379 86.4237129,23.9127308 C86.9326161,24.2444174 87.3609223,24.5842876 87.718345,24.9288435 L87.718345,24.9288435 C89.0829118,25.1168738 90.15675,27.1142609 90.15675,29.5505625 C90.15675,32.1110582 88.9706404,34.18675 87.5075,34.18675 C87.3721674,34.18675 87.2392049,34.1689919 87.1093319,34.1347347 C87.030983,34.1682565 86.9448009,34.18675 86.854322,34.18675 L62.339625,34.18675 L62.339625,46.9983574 L69.9095707,46.9983574 C73.0378949,46.9983574 75.585875,49.5411847 75.585875,52.6779212 C75.585875,55.808275 73.044507,58.3574849 69.9095707,58.3574849 L62.339625,58.3574849 L62.339625,64.6027864 L92.8523426,64.6027864 C94.2952829,64.6027864 95.45525,65.7661287 95.45525,67.2011842 C95.45525,68.6333197 94.2898887,69.799582 92.8523426,69.799582 L62.339625,69.799582 L62.339625,71.8783003 L92.8523426,71.8783003 C94.2952829,71.8783003 95.45525,73.0416426 95.45525,74.4766981 C95.45525,75.9088335 94.2898887,77.0750959 92.8523426,77.0750959 L62.339625,77.0750959 L62.339625,79.1538142 L92.8523426,79.1538142 C94.2952829,79.1538142 95.45525,80.3171565 95.45525,81.752212 C95.45525,83.1843474 94.2898887,84.3506098 92.8523426,84.3506098 L62.339625,84.3506098 L62.339625,92.4348673 L92.7139089,92.4348673 C94.2367086,92.4348673 95.45525,93.6624743 95.45525,95.1768044 C95.45525,96.688053 94.2279098,97.9187414 92.7139089,97.9187414 L62.339625,97.9187414 L62.339625,100.112291 L92.7139089,100.112291 C94.2367086,100.112291 95.45525,101.339898 95.45525,102.854228 C95.45525,104.365477 94.2279098,105.596165 92.7139089,105.596165 L62.339625,105.596165 L62.339625,107.789715 L92.7139089,107.789715 C94.2367086,107.789715 95.45525,109.017322 95.45525,110.531652 C95.45525,112.042901 94.2279098,113.273589 92.7139089,113.273589 L62.339625,113.273589 L62.339625,115.807318 L92.7139089,115.807318 C94.2367086,115.807318 95.45525,117.034925 95.45525,118.549255 C95.45525,120.060504 94.2279098,121.291192 92.7139089,121.291192 L62.339625,121.291192 L62.339625,145.45525 Z" id="Rectangle-2" fill="#2BA8B5" sketch:type="MSShapeGroup"></path>
        <path d="M43.5851286,32.1859453 L83.5655126,32.1859453 C83.5655126,32.1859453 88.6990315,27.8294814 83.3321708,24.490702 C77.9653101,21.1519226 79.4791293,19.9657623 73.8998232,20.3664613 C69.819909,20.6594759 68.8606873,15.1319129 69.2787234,12.139778 C69.4323541,11.0401512 69.2787233,10.2829605 69.2787233,10.2829605 C69.2787233,10.2829605 68.1853329,4.28841146 62.2449854,4.28841146 C56.304638,4.28841146 54.9294856,10.2829605 54.9294856,10.2829605 C54.9294856,10.2829605 56.4688448,20.7671604 50.0827101,20.7671604 C43.6965754,20.7671604 44.1829943,21.0950051 42.1444463,23.956816 C40.1058984,26.8186269 38.7104914,23.956816 38.7104914,28.7936635 C38.7104914,33.630511 43.5851286,32.1859453 43.5851286,32.1859453 Z M62.8015779,14.211405 C64.7711899,14.211405 66.3678759,12.6457403 66.3678759,10.714395 C66.3678759,8.78304971 64.7711899,7.217385 62.8015779,7.217385 C60.8319658,7.217385 59.2352798,8.78304971 59.2352798,10.714395 C59.2352798,12.6457403 60.8319658,14.211405 62.8015779,14.211405 Z" id="Path-1" fill="#2FB7C5" sketch:type="MSShapeGroup"></path>
        <path d="M62.8695073,32.0534747 L83.5655126,32.0534747 C83.5655126,32.0534747 88.6990315,27.6970108 83.3321708,24.3582314 C77.9653101,21.019452 79.4791293,19.8332917 73.8998232,20.2339908 C69.819909,20.5270053 68.8606873,14.9994423 69.2787234,12.0073074 C69.4323541,10.9076806 69.2787233,10.1504899 69.2787233,10.1504899 C69.2787233,10.1504899 68.2628451,4.58090451 62.8695073,4.17880998 L62.8695073,7.0855361 C64.807771,7.12104122 66.3678759,8.67283152 66.3678759,10.5819244 C66.3678759,12.4910173 64.807771,14.0428076 62.8695073,14.0783127 L62.8695073,32.0534747 Z" id="Path-2" fill="#2CA8B5" sketch:type="MSShapeGroup"></path>
        <g id="Group" sketch:type="MSLayerGroup" transform="translate(-106.276419, 20.605792)"></g>
        <path d="M-250.040027,139.767206 C-249.956355,139.8539 -249.871709,139.940064 -249.786091,140.025682 C-243.903536,145.908237 -235.44173,147.202717 -229.84984,143.413743 L-229.427681,143.821417 L-162.255384,74.2624674 C-152.184645,77.8994098 -141.57146,76.5056476 -134.696408,69.6305954 C-127.209607,62.1437939 -126.222956,50.2240162 -131.154566,39.3992148 L-131.154566,39.3992148 C-131.933342,41.741269 -133.168982,44.0346269 -134.864335,46.1282135 C-141.315031,54.0941599 -151.978464,56.1513794 -158.68178,50.7231418 C-159.708168,49.8919886 -160.582201,48.9335331 -161.303315,47.8776499 L-232.122739,121.21331 C-231.029347,122.329132 -230.355196,123.85732 -230.355196,125.542964 C-230.355196,128.959717 -233.125021,131.729542 -236.541774,131.729542 C-238.149753,131.729542 -239.61445,131.116082 -240.714593,130.110436 L-250.040027,139.767206 Z M556.943386,107.195371 C557.001433,107.255515 557.060156,107.315291 557.119553,107.374688 C561.200549,111.455684 567.07089,112.353723 570.950238,109.72514 L571.243109,110.007962 L617.843591,61.7517503 C624.830121,64.2748629 632.192971,63.3079466 636.962508,58.5384097 C642.156443,53.3444745 642.840928,45.0751818 639.419645,37.565524 L639.419645,37.565524 C638.879373,39.1903137 638.022153,40.7813205 636.846009,42.2337369 C632.370868,47.7600767 624.973158,49.1872636 620.322763,45.421448 C619.610711,44.8448391 619.004354,44.1799149 618.504085,43.4474006 L569.373425,94.3236885 C570.131961,95.0977849 570.59965,96.1579584 570.59965,97.3273665 C570.59965,99.6977234 568.678096,101.619277 566.307739,101.619277 C565.192211,101.619277 564.176083,101.193692 563.412864,100.49603 L556.943386,107.195371 L556.943386,107.195371 Z" id="Rectangle-74" fill="#2BA8B5" sketch:type="MSShapeGroup"></path>
    </g>
</svg>